<svg width="16" height="18" viewBox="0 0 16 18" fill="none" xmlns="http://www.w3.org/2000/svg">
<path d="M2 15C2 15.5523 2.44772 16 3 16H4C4.55228 16 5 15.5523 5 15V11C5 10.4477 5.44772 10 6 10H10C10.5523 10 11 10.4477 11 11V15C11 15.5523 11.4477 16 12 16H13C13.5523 16 14 15.5523 14 15V7.5C14 7.18524 13.8518 6.88885 13.6 6.7L8.6 2.95C8.24444 2.68333 7.75556 2.68333 7.4 2.95L2.4 6.7C2.14819 6.88885 2 7.18524 2 7.5V15ZM1 18C0.447715 18 0 17.5523 0 17V6.5C0 6.18524 0.148194 5.88885 0.4 5.7L7.4 0.45C7.75556 0.183333 8.24444 0.183333 8.6 0.45L15.6 5.7C15.8518 5.88885 16 6.18524 16 6.5V17C16 17.5523 15.5523 18 15 18H10C9.44771 18 9 17.5523 9 17V13C9 12.4477 8.55229 12 8 12C7.44772 12 7 12.4477 7 13V17C7 17.5523 6.55228 18 6 18H1Z" fill="#6218C7"/>
</svg>
