<svg width="24" height="24" viewBox="0 0 24 24" fill="none" xmlns="http://www.w3.org/2000/svg">
<mask id="mask0_23_13" style="mask-type:alpha" maskUnits="userSpaceOnUse" x="0" y="0" width="24" height="24">
<rect width="24" height="24" fill="transparent"/>
</mask>
<g mask="url(#mask0_23_13)">
<path d="M12 22C10.6167 22 9.31667 21.7375 8.1 21.2125C6.88333 20.6875 5.825 19.975 4.925 19.075C4.025 18.175 3.3125 17.1167 2.7875 15.9C2.2625 14.6833 2 13.3833 2 12C2 9.41667 2.85833 7.175 4.575 5.275C6.04266 3.6506 7.82098 2.62922 9.90994 2.21086C10.489 2.09489 11 2.56154 11 3.15214V4.1756C11 4.67632 10.627 5.09184 10.1419 5.216C8.78792 5.56254 7.64064 6.28221 6.7 7.375C5.56667 8.69167 5 10.2333 5 12C5 13.95 5.67917 15.6042 7.0375 16.9625C8.39583 18.3208 10.05 19 12 19C13.0667 19 14.0792 18.775 15.0375 18.325C15.741 17.9947 16.3704 17.561 16.9258 17.0241C17.2776 16.6839 17.811 16.5794 18.235 16.824L19.135 17.3433C19.6503 17.6406 19.7966 18.3231 19.3963 18.763C18.5846 19.655 17.6358 20.3757 16.55 20.925C15.1333 21.6417 13.6167 22 12 22ZM21.5567 15.0705C21.3745 15.6166 20.7292 15.8073 20.2306 15.5196L19.2745 14.968C18.8552 14.7261 18.6768 14.2199 18.7908 13.7495C18.828 13.596 18.8602 13.442 18.8875 13.2875C18.9625 12.8625 19 12.4333 19 12C19 10.2333 18.4333 8.69167 17.3 7.375C16.3594 6.28221 15.2121 5.56254 13.8581 5.216C13.373 5.09184 13 4.67632 13 4.1756V3.15214C13 2.56154 13.511 2.09489 14.0901 2.21086C16.179 2.62922 17.9573 3.6506 19.425 5.275C21.1417 7.175 22 9.41667 22 12C22 12.7 21.9375 13.3917 21.8125 14.075C21.7507 14.4129 21.6654 14.7448 21.5567 15.0705Z" fill="currentColor"/>
</g>
</svg>
